<?xml version="1.0" encoding="UTF-8"?> <svg xmlns="http://www.w3.org/2000/svg" width="30" height="30" viewBox="0 0 30 30" fill="none"><path d="M15.5 3.625C16.5893 3.625 17.634 4.05301 18.4042 4.81488C19.1744 5.57675 19.6071 6.61006 19.6071 7.6875V8.5H11.3929V7.6875C11.3929 6.61006 11.8256 5.57675 12.5958 4.81488C13.3661 4.05301 14.4107 3.625 15.5 3.625ZM21.25 8.5V7.6875C21.25 6.17908 20.6442 4.73244 19.5659 3.66583C18.4875 2.59922 17.025 2 15.5 2C13.975 2 12.5125 2.59922 11.4341 3.66583C10.3558 4.73244 9.75 6.17908 9.75 7.6875V8.5H4V24.75C4 25.612 4.34617 26.4386 4.96236 27.0481C5.57855 27.6576 6.41429 28 7.28571 28H23.7143C24.5857 28 25.4214 27.6576 26.0376 27.0481C26.6538 26.4386 27 25.612 27 24.75V8.5H21.25ZM5.64286 10.125H25.3571V24.75C25.3571 25.181 25.1841 25.5943 24.876 25.899C24.5679 26.2038 24.15 26.375 23.7143 26.375H7.28571C6.85 26.375 6.43213 26.2038 6.12404 25.899C5.81594 25.5943 5.64286 25.181 5.64286 24.75V10.125Z" fill="black"></path></svg> 